<?xml version="1.0" standalone="no"?>
<!DOCTYPE svg PUBLIC "-//W3C//DTD SVG 20010904//EN"
 "http://www.w3.org/TR/2001/REC-SVG-20010904/DTD/svg10.dtd">
<svg version="1.0" xmlns="http://www.w3.org/2000/svg"
 width="512.000000pt" height="512.000000pt" viewBox="0 0 512.000000 512.000000"
 preserveAspectRatio="xMidYMid meet">
<metadata>
Created by potrace 1.14, written by Peter Selinger 2001-2017
</metadata>
<g transform="translate(0.000000,512.000000) scale(0.100000,-0.100000)"
fill="#000000" stroke="none">
<path d="M4835 3906 c-201 -53 -422 -162 -615 -304 -264 -195 -535 -472 -760
-776 -267 -361 -336 -451 -433 -566 -58 -69 -149 -168 -202 -220 l-97 -95 62
95 c78 120 188 347 245 504 24 67 64 209 90 316 114 489 216 801 299 913 11
16 51 44 87 63 37 18 69 40 72 48 22 56 -154 -8 -338 -123 -252 -159 -398
-320 -928 -1026 -173 -231 -352 -465 -398 -520 -303 -362 -631 -589 -924 -640
-338 -59 -578 68 -649 342 -23 89 -21 250 5 343 43 159 143 323 266 441 132
126 234 182 385 213 240 50 422 -26 473 -197 24 -80 19 -220 -8 -288 -42 -100
-116 -208 -174 -250 -58 -43 -61 -50 -37 -70 21 -17 48 -1 189 109 146 115
212 201 263 345 21 60 25 91 26 187 1 111 0 118 -32 183 -54 110 -144 162
-303 174 -227 17 -517 -94 -784 -302 -244 -190 -457 -514 -525 -799 -25 -101
-27 -275 -5 -361 27 -102 68 -177 140 -254 141 -149 336 -199 615 -156 187 28
346 97 493 215 126 100 474 452 554 560 39 52 178 250 310 440 253 365 444
621 604 810 99 117 199 221 199 206 0 -4 -38 -60 -84 -124 -152 -211 -225
-375 -311 -696 -142 -535 -229 -816 -291 -938 -40 -80 -94 -155 -168 -234 -69
-75 -76 -88 -51 -98 26 -10 105 27 230 109 318 207 527 427 1060 1120 266 347
461 581 559 672 166 156 396 333 516 398 8 4 -71 -80 -176 -186 -182 -185
-251 -267 -521 -624 -73 -97 -203 -301 -284 -446 -74 -131 -190 -399 -223
-512 -91 -312 -43 -521 130 -573 138 -41 301 11 466 151 221 187 635 732 590
777 -17 17 -41 -8 -120 -122 -88 -128 -296 -335 -375 -374 -117 -58 -198 -41
-239 52 -20 44 -20 53 -10 145 21 172 67 305 204 587 134 274 179 351 326 560
222 313 318 433 459 570 121 118 151 141 235 185 53 27 94 53 91 57 -8 15 -88
7 -178 -16z"/>
</g>
</svg>
